<svg xmlns="http://www.w3.org/2000/svg" xmlns:xlink="http://www.w3.org/1999/xlink" viewBox="0,0,256,256" width="24px" height="24px"><g fill="#b41111" fill-rule="nonzero" stroke="none" stroke-width="1" stroke-linecap="butt" stroke-linejoin="miter" stroke-miterlimit="10" stroke-dasharray="" stroke-dashoffset="0" font-family="none" font-weight="none" font-size="none" text-anchor="none" style="mix-blend-mode: normal"><g transform="scale(10.66667,10.66667)"><path d="M3,3h18v2h-18z"></path><path d="M16.1,22h-8.2c-1,0 -1.9,-0.7 -2,-1.7l-1.9,-16.2l2,-0.2l1.9,16.1h8.2l1.9,-16.1l2,0.2l-1.9,16.1c-0.1,1.1 -1,1.8 -2,1.8z"></path><path d="M5,4l1.9,16.1c0.1,0.5 0.5,0.9 1,0.9h8.2c0.5,0 0.9,-0.4 1,-0.9l1.9,-16.1z" opacity="0.3"></path><path d="M15,3v1h-6v-1l1,-1h4z"></path></g></g></svg>